<svg width="125" height="50" viewBox="0 0 125 50" fill="none" xmlns="http://www.w3.org/2000/svg">
<rect width="125" height="49.3492" rx="24.6746" fill="black"/>
<path d="M27.6992 8.80849C24.1461 9.47153 21.7115 10.7976 19.1453 13.516C16.2502 16.4997 15 19.8812 15 24.4561C15.0658 33.1418 21.5799 39.9048 29.8706 39.9048H32.9631L32.5683 34.5342C32.1077 27.8376 29.41 21.804 24.7382 17.229C22.9617 15.4388 21.7115 13.7812 21.9089 13.3834C22.8301 11.9248 25.133 12.853 28.423 16.0356C33.0947 20.4779 35.5293 25.8485 35.9241 32.6114C36.1215 35.794 36.5821 37.982 37.24 38.7113C38.556 40.3026 41.7144 40.2363 43.0961 38.5787C43.7541 37.8494 44.8727 37.2526 45.5965 37.2526C46.3203 37.2526 47.3073 37.8494 47.7679 38.5787C48.2943 39.4407 49.2812 39.9048 50.5314 39.9048C52.7028 39.9048 53.1634 38.9102 51.2552 38.2472C50.5972 38.0483 49.5444 37.319 48.8865 36.5896C47.3073 34.7994 43.8857 34.8657 42.3066 36.5896C41.5828 37.3853 40.4642 37.9157 39.7404 37.7831C38.4902 37.5842 38.2928 36.9211 37.898 32.081C37.3058 25.1854 34.9371 19.6159 30.5285 15.1736C28.8178 13.4497 27.107 12.0574 26.778 12.0574C26.449 12.0574 26.1858 11.7258 26.1858 11.3943C26.1858 10.9965 27.107 10.7313 28.2914 10.7313C32.7657 10.7313 40.6616 21.605 40.6616 27.8376C40.6616 30.9538 41.3854 32.6114 42.7672 32.6114C45.5965 32.6114 46.9783 23.2626 44.8727 18.1573C43.7541 15.3062 40.4642 11.7258 37.8322 10.3335C35.2003 8.9411 30.8575 8.27807 27.6992 8.80849ZM40.3984 14.8421C42.8988 17.5605 43.9515 20.4779 43.9515 24.5887C43.9515 26.7767 43.6883 28.7658 43.2935 28.9647C42.8988 29.1636 42.6356 28.6995 42.6356 27.7713C42.6356 23.992 39.4114 17.0301 35.7925 13.1845C34.8713 12.19 34.0817 11.1954 34.0817 10.9965C34.0817 10.3335 39.0824 13.3171 40.3984 14.8421ZM23.6855 19.1518C26.6464 22.2681 29.3442 26.6441 28.3572 26.6441C26.6464 26.6441 20.1323 21.4724 18.8821 19.2181C18.1583 17.8921 18.7505 16.0356 19.8691 16.0356C20.2639 16.0356 21.9747 17.4279 23.6855 19.1518ZM27.107 28.368C28.752 29.0973 30.1338 29.9593 30.1338 30.4234C30.1338 30.8212 30.3312 31.6832 30.5943 32.3462C30.9233 33.3407 30.7259 33.4071 29.081 33.0092C26.3174 32.3462 20.3955 28.6332 18.5531 26.4452C17.632 25.318 16.974 23.7268 16.974 22.5333V20.5442L20.5271 23.8594C22.5011 25.6496 25.462 27.705 27.107 28.368ZM27.5676 34.4016C29.8048 35.1972 30.7917 35.9266 30.7917 36.7222C30.7917 39.2418 24.6724 37.7168 21.0535 34.3353C19.6717 33.1418 17.632 29.9593 17.632 29.031C17.632 28.8984 19.1453 29.7604 20.9877 31.0201C22.8301 32.2136 25.791 33.8049 27.5676 34.4016Z" fill="white"/>
<path d="M53.986 39.1592C53.986 39.7807 54.6028 40.4023 55.2197 40.4023C55.9599 40.4023 56.4534 39.7807 56.4534 39.1592C56.4534 38.4132 55.9599 37.916 55.2197 37.916C54.6028 37.916 53.986 38.4132 53.986 39.1592Z" fill="white"/>
<path d="M59.1218 13.2546L57.4496 15.1607C57.4028 15.0983 57.3248 15.0126 57.2157 14.9035C57.1143 14.7943 56.8961 14.654 56.5608 14.4825C56.2256 14.3032 55.8826 14.2135 55.5318 14.2135C55.0874 14.2135 54.7366 14.311 54.4793 14.5059C54.2221 14.693 54.0934 14.9112 54.0934 15.1607C54.0934 15.4648 54.2766 15.7181 54.643 15.9208C55.0095 16.1235 55.4538 16.3067 55.9761 16.4704C56.5063 16.6263 57.0403 16.8173 57.5782 17.0434C58.1161 17.2617 58.5683 17.6203 58.9347 18.1192C59.3011 18.6104 59.4843 19.2224 59.4843 19.9552C59.4843 21.0076 59.0672 21.8885 58.233 22.598C57.4067 23.3074 56.2685 23.6621 54.8185 23.6621C54.1948 23.6621 53.6023 23.588 53.041 23.4399C52.4797 23.2918 52.0236 23.1125 51.6728 22.902C51.322 22.6915 51.0141 22.4849 50.749 22.2822C50.4918 22.0717 50.3047 21.8963 50.1877 21.756L50.024 21.5104L51.8248 19.7213C51.8872 19.8148 51.9847 19.9357 52.1172 20.0838C52.2575 20.2241 52.546 20.419 52.9825 20.6685C53.4191 20.9102 53.8713 21.031 54.339 21.031C54.8535 21.031 55.2394 20.9335 55.4967 20.7387C55.7618 20.536 55.8943 20.2748 55.8943 19.9552C55.8943 19.6355 55.7111 19.3705 55.3447 19.16C54.9783 18.9417 54.5261 18.7546 53.9882 18.5987C53.4503 18.435 52.9163 18.2401 52.3861 18.014C51.8638 17.7879 51.4195 17.4371 51.0531 16.9616C50.6866 16.486 50.5034 15.8857 50.5034 15.1607C50.5034 14.2174 50.94 13.3638 51.8132 12.5998C52.6941 11.8358 53.7738 11.4538 55.0523 11.4538C55.8631 11.4538 56.6076 11.6058 57.2858 11.9098C57.9719 12.2139 58.4474 12.5101 58.7125 12.7986L59.1218 13.2546ZM65.3663 15.3478C64.7972 15.9481 64.5126 16.6887 64.5126 17.5696C64.5126 18.4428 64.7972 19.1795 65.3663 19.7798C65.9353 20.3722 66.6097 20.6685 67.3893 20.6685C68.1689 20.6685 68.8432 20.3722 69.4123 19.7798C69.9814 19.1795 70.2659 18.4428 70.2659 17.5696C70.2659 16.6887 69.9814 15.9481 69.4123 15.3478C68.8432 14.7475 68.1689 14.4474 67.3893 14.4474C66.6097 14.4474 65.9353 14.7475 65.3663 15.3478ZM71.7511 13.2897C72.9906 14.5059 73.6104 15.9286 73.6104 17.5579C73.6104 19.1873 72.9906 20.6139 71.7511 21.8379C70.5193 23.054 69.0654 23.6621 67.3893 23.6621C65.7132 23.6621 64.2553 23.054 63.0158 21.8379C61.7763 20.6139 61.1565 19.1873 61.1565 17.5579C61.1565 15.9286 61.7763 14.5059 63.0158 13.2897C64.2553 12.0658 65.7132 11.4538 67.3893 11.4538C69.0654 11.4538 70.5193 12.0658 71.7511 13.2897ZM84.8715 10.4949V8.2263H87.7365V12.0502H90.1337V14.9268H87.7365V19.4757C87.7365 19.8421 87.8729 20.154 88.1458 20.4112C88.4186 20.6685 88.7616 20.7971 89.1748 20.7971C89.3853 20.7971 89.588 20.7776 89.7829 20.7387C89.9856 20.6919 90.1337 20.6451 90.2272 20.5983L90.3793 20.5516V23.3113C89.74 23.553 89.0189 23.6699 88.2159 23.6621C85.7446 23.6621 84.509 22.3056 84.509 19.5927V14.9268H79.9601V23.4282H76.7209V14.9268H75.0487V12.0502H76.7209V10.4949C76.7209 7.78193 77.9605 6.42545 80.4395 6.42545C80.7904 6.42545 81.1451 6.45664 81.5037 6.519C81.8623 6.58137 82.139 6.64374 82.3339 6.7061L82.5912 6.78796V9.536C82.2716 9.38008 81.874 9.30213 81.3984 9.30213C80.9853 9.30213 80.6422 9.43076 80.3694 9.68802C80.0965 9.93749 79.9601 10.2454 79.9601 10.6118V12.0502H83.5501C83.9165 12.0502 84.2283 11.9059 84.4856 11.6175C84.7429 11.329 84.8715 10.9548 84.8715 10.4949ZM64.0332 29.6877V31.126C64.1267 31.0013 64.2592 30.8492 64.4307 30.6699C64.6023 30.4828 64.9765 30.2334 65.5534 29.9215C66.138 29.6097 66.75 29.4538 67.3893 29.4538C68.7302 29.4538 69.8216 29.9176 70.6635 30.8453C71.5133 31.7731 71.9382 33.0243 71.9382 34.5991V41.4282H68.7107V34.9616C68.7107 34.2443 68.4963 33.6674 68.0675 33.2309C67.6465 32.7865 67.1008 32.5643 66.4304 32.5643C65.6976 32.5643 65.1129 32.806 64.6763 33.2893C64.2475 33.7649 64.0332 34.4431 64.0332 35.3241V41.4282H60.8057V29.6877H64.0332ZM86.1812 36.6338H77.6798C77.8045 37.273 78.1437 37.8148 78.6972 38.2592C79.2507 38.6958 79.9484 38.9141 80.7904 38.9141C81.3984 38.9141 81.9597 38.7971 82.4743 38.5632C82.9966 38.3216 83.363 38.0799 83.5735 37.8382L83.9126 37.4757L85.5848 39.6274L85.3743 39.8379C85.273 39.9392 85.0625 40.1068 84.7429 40.3407C84.4232 40.5746 84.0841 40.7851 83.7255 40.9722C83.3669 41.1515 82.8991 41.3113 82.3222 41.4516C81.7531 41.5919 81.1646 41.6621 80.5565 41.6621C78.8336 41.6621 77.3641 41.0657 76.1479 39.8729C74.9318 38.6724 74.3237 37.2341 74.3237 35.5579C74.3237 33.8818 74.924 32.4474 76.1245 31.2546C77.3251 30.0541 78.7634 29.4538 80.4395 29.4538C82.1157 29.4538 83.5111 30.0151 84.6259 31.1377C85.7407 32.2525 86.2981 33.648 86.2981 35.3241L86.1812 36.6338ZM82.1702 32.8216C81.7025 32.4162 81.1256 32.2135 80.4395 32.2135C79.7535 32.2135 79.1688 32.4123 78.6855 32.8099C78.2099 33.2075 77.8747 33.7259 77.6798 34.3652H83.0706C82.9459 33.7415 82.6458 33.227 82.1702 32.8216ZM96.8459 31.2546L95.1737 33.1607C95.1269 33.0983 95.049 33.0126 94.9398 32.9035C94.8385 32.7943 94.6202 32.654 94.285 32.4825C93.9498 32.3032 93.6068 32.2135 93.2559 32.2135C92.8116 32.2135 92.4608 32.311 92.2035 32.5059C91.9462 32.693 91.8176 32.9112 91.8176 33.1607C91.8176 33.4648 92.0008 33.7181 92.3672 33.9208C92.7336 34.1235 93.178 34.3067 93.7003 34.4704C94.2304 34.6263 94.7644 34.8173 95.3024 35.0434C95.8403 35.2617 96.2924 35.6203 96.6588 36.1192C97.0252 36.6104 97.2084 37.2224 97.2084 37.9552C97.2084 39.0076 96.7914 39.8885 95.9572 40.598C95.1308 41.3074 93.9926 41.6621 92.5426 41.6621C91.9189 41.6621 91.3265 41.588 90.7652 41.4399C90.2039 41.2918 89.7478 41.1125 89.397 40.902C89.0462 40.6915 88.7382 40.4849 88.4732 40.2822C88.2159 40.0717 88.0288 39.8963 87.9119 39.756L87.7482 39.5104L89.549 37.7213C89.6114 37.8148 89.7088 37.9357 89.8414 38.0838C89.9817 38.2241 90.2701 38.419 90.7067 38.6685C91.1433 38.9102 91.5954 39.031 92.0632 39.031C92.5777 39.031 92.9636 38.9335 93.2209 38.7387C93.4859 38.536 93.6184 38.2748 93.6184 37.9552C93.6184 37.6355 93.4352 37.3705 93.0688 37.16C92.7024 36.9417 92.2503 36.7546 91.7124 36.5987C91.1744 36.435 90.6404 36.2401 90.1103 36.014C89.588 35.7879 89.1436 35.4371 88.7772 34.9616C88.4108 34.486 88.2276 33.8857 88.2276 33.1607C88.2276 32.2174 88.6642 31.3638 89.5373 30.5998C90.4182 29.8358 91.498 29.4538 92.7765 29.4538C93.5873 29.4538 94.3318 29.6058 95.01 29.9098C95.696 30.2139 96.1716 30.5101 96.4366 30.7986L96.8459 31.2546ZM107.745 31.2546L106.072 33.1607C106.026 33.0983 105.948 33.0126 105.838 32.9035C105.737 32.7943 105.519 32.654 105.184 32.4825C104.848 32.3032 104.505 32.2135 104.155 32.2135C103.71 32.2135 103.359 32.311 103.102 32.5059C102.845 32.693 102.716 32.9112 102.716 33.1607C102.716 33.4648 102.899 33.7181 103.266 33.9208C103.632 34.1235 104.077 34.3067 104.599 34.4704C105.129 34.6263 105.663 34.8173 106.201 35.0434C106.739 35.2617 107.191 35.6203 107.557 36.1192C107.924 36.6104 108.107 37.2224 108.107 37.9552C108.107 39.0076 107.69 39.8885 106.856 40.598C106.029 41.3074 104.891 41.6621 103.441 41.6621C102.818 41.6621 102.225 41.588 101.664 41.4399C101.102 41.2918 100.646 41.1125 100.296 40.902C99.9448 40.6915 99.6368 40.4849 99.3718 40.2822C99.1145 40.0717 98.9274 39.8963 98.8105 39.756L98.6468 39.5104L100.448 37.7213C100.51 37.8148 100.607 37.9357 100.74 38.0838C100.88 38.2241 101.169 38.419 101.605 38.6685C102.042 38.9102 102.494 39.031 102.962 39.031C103.476 39.031 103.862 38.9335 104.119 38.7387C104.385 38.536 104.517 38.2748 104.517 37.9552C104.517 37.6355 104.334 37.3705 103.967 37.16C103.601 36.9417 103.149 36.7546 102.611 36.5987C102.073 36.435 101.539 36.2401 101.009 36.014C100.487 35.7879 100.042 35.4371 99.6758 34.9616C99.3094 34.486 99.1262 33.8857 99.1262 33.1607C99.1262 32.2174 99.5628 31.3638 100.436 30.5998C101.317 29.8358 102.397 29.4538 103.675 29.4538C104.486 29.4538 105.23 29.6058 105.909 29.9098C106.595 30.2139 107.07 30.5101 107.335 30.7986L107.745 31.2546Z" fill="white"/>
</svg>
