<svg width="103" height="41" viewBox="0 0 103 41" fill="none" xmlns="http://www.w3.org/2000/svg">
<rect width="103" height="41" rx="20.5" fill="white"/>
<path d="M23.1886 7.16309C20.2458 7.70976 18.2294 8.80309 16.104 11.0444C13.7061 13.5044 12.6707 16.2924 12.6707 20.0644C12.7252 27.2258 18.1204 32.8018 24.9871 32.8018H27.5484L27.2214 28.3738C26.84 22.8524 24.6056 17.8778 20.7363 14.1058C19.2648 12.6298 18.2294 11.2631 18.3929 10.9351C19.1558 9.73243 21.0632 10.4978 23.7881 13.1218C27.6574 16.7844 29.6738 21.2124 30.0008 26.7884C30.1643 29.4124 30.5458 31.2164 31.0908 31.8178C32.1807 33.1298 34.7966 33.0751 35.941 31.7084C36.486 31.1071 37.4125 30.6151 38.0119 30.6151C38.6114 30.6151 39.4289 31.1071 39.8103 31.7084C40.2463 32.4191 41.0638 32.8018 42.0992 32.8018C43.8976 32.8018 44.2791 31.9818 42.6987 31.4351C42.1537 31.2711 41.2818 30.6698 40.7368 30.0684C39.4289 28.5924 36.595 28.6471 35.2871 30.0684C34.6876 30.7244 33.7611 31.1618 33.1617 31.0524C32.1262 30.8884 31.9627 30.3418 31.6357 26.3511C31.1453 20.6658 29.1834 16.0738 25.532 12.4111C24.1151 10.9898 22.6982 9.84176 22.4257 9.84176C22.1532 9.84176 21.9352 9.56843 21.9352 9.29509C21.9352 8.96709 22.6982 8.74842 23.6791 8.74842C27.3849 8.74842 33.9246 17.7138 33.9246 22.8524C33.9246 25.4218 34.5241 26.7884 35.6685 26.7884C38.0119 26.7884 39.1564 19.0804 37.4125 14.8711C36.486 12.5204 33.7611 9.56843 31.5812 8.42043C29.4013 7.27242 25.8045 6.72576 23.1886 7.16309ZM33.7066 12.1378C35.7775 14.3791 36.6495 16.7844 36.6495 20.1738C36.6495 21.9778 36.4315 23.6178 36.1045 23.7818C35.7775 23.9458 35.5595 23.5631 35.5595 22.7978C35.5595 19.6818 32.8892 13.9418 29.8918 10.7711C29.1289 9.95109 28.4749 9.13109 28.4749 8.96709C28.4749 8.42043 32.6167 10.8804 33.7066 12.1378ZM19.8643 15.6911C22.3167 18.2604 24.5511 21.8684 23.7336 21.8684C22.3167 21.8684 16.9214 17.6044 15.886 15.7458C15.2865 14.6524 15.777 13.1218 16.7035 13.1218C17.0304 13.1218 18.4474 14.2698 19.8643 15.6911ZM22.6982 23.2898C24.0606 23.8911 25.205 24.6018 25.205 24.9844C25.205 25.3124 25.3685 26.0231 25.5865 26.5698C25.859 27.3898 25.6955 27.4444 24.3331 27.1164C22.0442 26.5698 17.1394 23.5084 15.6135 21.7044C14.8505 20.7751 14.3056 19.4631 14.3056 18.4791V16.8391L17.2484 19.5724C18.8834 21.0484 21.3357 22.7431 22.6982 23.2898ZM23.0796 28.2644C24.9326 28.9204 25.75 29.5218 25.75 30.1778C25.75 32.2551 20.6818 30.9978 17.6844 28.2098C16.54 27.2258 14.8505 24.6018 14.8505 23.8364C14.8505 23.7271 16.104 24.4378 17.6299 25.4764C19.1558 26.4604 21.6082 27.7724 23.0796 28.2644Z" fill="black"/>
<path d="M44.9603 32.1859C44.9603 32.6984 45.4712 33.2109 45.9822 33.2109C46.5952 33.2109 47.004 32.6984 47.004 32.1859C47.004 31.5709 46.5952 31.1609 45.9822 31.1609C45.4712 31.1609 44.9603 31.5709 44.9603 32.1859Z" fill="black"/>
<path d="M49.214 11.0836L47.829 12.6623C47.7902 12.6106 47.7257 12.5396 47.6353 12.4492C47.5513 12.3588 47.3705 12.2426 47.0929 12.1005C46.8153 11.952 46.5312 11.8778 46.2406 11.8778C45.8726 11.8778 45.582 11.9585 45.3689 12.1199C45.1558 12.2749 45.0493 12.4557 45.0493 12.6623C45.0493 12.9141 45.201 13.1239 45.5045 13.2918C45.808 13.4597 46.176 13.6114 46.6086 13.747C47.0477 13.8762 47.49 14.0344 47.9355 14.2216C48.381 14.4024 48.7555 14.6994 49.059 15.1127C49.3625 15.5194 49.5142 16.0263 49.5142 16.6332C49.5142 17.5049 49.1688 18.2345 48.4779 18.8221C47.7935 19.4097 46.8508 19.7035 45.6498 19.7035C45.1332 19.7035 44.6425 19.6421 44.1776 19.5195C43.7127 19.3968 43.335 19.2483 43.0445 19.0739C42.7539 18.8996 42.4989 18.7285 42.2793 18.5606C42.0662 18.3863 41.9113 18.241 41.8144 18.1248L41.6788 17.9214L43.1704 16.4395C43.222 16.517 43.3027 16.6171 43.4125 16.7398C43.5287 16.856 43.7676 17.0174 44.1292 17.224C44.4908 17.4242 44.8653 17.5243 45.2527 17.5243C45.6789 17.5243 45.9985 17.4436 46.2115 17.2822C46.4311 17.1143 46.5408 16.898 46.5408 16.6332C46.5408 16.3685 46.3891 16.149 46.0856 15.9746C45.7822 15.7938 45.4077 15.6389 44.9621 15.5097C44.5166 15.3742 44.0743 15.2127 43.6353 15.0255C43.2027 14.8382 42.8346 14.5477 42.5311 14.1538C42.2277 13.7599 42.0759 13.2628 42.0759 12.6623C42.0759 11.881 42.4375 11.174 43.1607 10.5412C43.8903 9.90843 44.7846 9.59205 45.8435 9.59205C46.515 9.59205 47.1316 9.71796 47.6934 9.96977C48.2616 10.2216 48.6555 10.4669 48.875 10.7059L49.214 11.0836ZM54.3859 12.8172C53.9146 13.3144 53.6789 13.9278 53.6789 14.6574C53.6789 15.3806 53.9146 15.9908 54.3859 16.488C54.8573 16.9787 55.4158 17.224 56.0615 17.224C56.7071 17.224 57.2657 16.9787 57.737 16.488C58.2084 15.9908 58.444 15.3806 58.444 14.6574C58.444 13.9278 58.2084 13.3144 57.737 12.8172C57.2657 12.3201 56.7071 12.0715 56.0615 12.0715C55.4158 12.0715 54.8573 12.3201 54.3859 12.8172ZM59.6741 11.1126C60.7007 12.1199 61.214 13.2983 61.214 14.6478C61.214 15.9972 60.7007 17.1788 59.6741 18.1926C58.6539 19.1998 57.4497 19.7035 56.0615 19.7035C54.6732 19.7035 53.4658 19.1998 52.4392 18.1926C51.4125 17.1788 50.8992 15.9972 50.8992 14.6478C50.8992 13.2983 51.4125 12.1199 52.4392 11.1126C53.4658 10.0989 54.6732 9.59205 56.0615 9.59205C57.4497 9.59205 58.6539 10.0989 59.6741 11.1126ZM70.5409 8.79785V6.91891H72.9138V10.086H74.8993V12.4686H72.9138V16.2361C72.9138 16.5396 73.0268 16.7979 73.2528 17.011C73.4788 17.224 73.7629 17.3306 74.1051 17.3306C74.2795 17.3306 74.4473 17.3144 74.6088 17.2822C74.7766 17.2434 74.8993 17.2047 74.9768 17.1659L75.1027 17.1272V19.4129C74.5732 19.6131 73.976 19.7099 73.3109 19.7035C71.2641 19.7035 70.2407 18.58 70.2407 16.333V12.4686H66.4731V19.5098H63.7903V12.4686H62.4053V10.086H63.7903V8.79785C63.7903 6.55087 64.8169 5.42738 66.8702 5.42738C67.1608 5.42738 67.4546 5.45321 67.7516 5.50486C68.0486 5.55652 68.2778 5.60817 68.4392 5.65983L68.6523 5.72762V8.00366C68.3876 7.87453 68.0583 7.80996 67.6644 7.80996C67.3222 7.80996 67.0381 7.91649 66.8121 8.12957C66.5861 8.33619 66.4731 8.59124 66.4731 8.89471V10.086H69.4465C69.75 10.086 70.0083 9.96654 70.2213 9.72764C70.4344 9.48874 70.5409 9.17881 70.5409 8.79785ZM53.2818 24.7858V25.977C53.3593 25.8737 53.469 25.7478 53.6111 25.5993C53.7531 25.4444 54.0631 25.2377 54.5409 24.9795C55.0251 24.7212 55.532 24.592 56.0615 24.592C57.172 24.592 58.076 24.9762 58.7733 25.7446C59.4771 26.513 59.829 27.5493 59.829 28.8536V34.5098H57.1559V29.1538C57.1559 28.5598 56.9783 28.082 56.6232 27.7204C56.2745 27.3523 55.8226 27.1683 55.2673 27.1683C54.6603 27.1683 54.1761 27.3685 53.8145 27.7688C53.4594 28.1627 53.2818 28.7244 53.2818 29.4541V34.5098H50.6087V24.7858H53.2818ZM71.6257 30.5388H64.5845C64.6878 31.0683 64.9687 31.517 65.4271 31.8851C65.8856 32.2466 66.4634 32.4274 67.1608 32.4274C67.6644 32.4274 68.1293 32.3306 68.5555 32.1369C68.9881 31.9367 69.2915 31.7365 69.4659 31.5364L69.7468 31.2361L71.1317 33.0182L70.9574 33.1926C70.8735 33.2765 70.6991 33.4153 70.4344 33.609C70.1697 33.8027 69.8888 33.9771 69.5918 34.132C69.2948 34.2805 68.9074 34.4129 68.4296 34.5291C67.9582 34.6454 67.4707 34.7035 66.9671 34.7035C65.5401 34.7035 64.323 34.2095 63.3157 33.2216C62.3085 32.2273 61.8048 31.036 61.8048 29.6478C61.8048 28.2595 62.302 27.0715 63.2964 26.0836C64.2907 25.0892 65.482 24.592 66.8702 24.592C68.2584 24.592 69.4142 25.0569 70.3376 25.9867C71.2609 26.9101 71.7225 28.0658 71.7225 29.4541L71.6257 30.5388ZM68.3036 27.3814C67.9162 27.0456 67.4384 26.8778 66.8702 26.8778C66.302 26.8778 65.8178 27.0424 65.4174 27.3717C65.0236 27.701 64.7459 28.1304 64.5845 28.6599H69.0494C68.9461 28.1433 68.6975 27.7172 68.3036 27.3814ZM80.4587 26.0836L79.0737 27.6623C79.0349 27.6106 78.9704 27.5396 78.88 27.4492C78.796 27.3588 78.6152 27.2426 78.3376 27.1005C78.0599 26.952 77.7758 26.8778 77.4853 26.8778C77.1172 26.8778 76.8267 26.9585 76.6136 27.1199C76.4005 27.2749 76.294 27.4557 76.294 27.6623C76.294 27.9141 76.4457 28.1239 76.7492 28.2918C77.0527 28.4597 77.4207 28.6114 77.8533 28.747C78.2924 28.8762 78.7347 29.0344 79.1802 29.2216C79.6257 29.4024 80.0002 29.6994 80.3037 30.1127C80.6072 30.5194 80.7589 31.0263 80.7589 31.6332C80.7589 32.5049 80.4135 33.2345 79.7226 33.8221C79.0382 34.4097 78.0955 34.7035 76.8945 34.7035C76.3779 34.7035 75.8872 34.6421 75.4223 34.5195C74.9574 34.3968 74.5797 34.2483 74.2891 34.0739C73.9986 33.8996 73.7435 33.7285 73.524 33.5606C73.3109 33.3863 73.156 33.241 73.0591 33.1248L72.9235 32.9214L74.4151 31.4395C74.4667 31.517 74.5474 31.6171 74.6572 31.7398C74.7734 31.856 75.0123 32.0174 75.3739 32.224C75.7355 32.4242 76.11 32.5243 76.4974 32.5243C76.9235 32.5243 77.2432 32.4436 77.4562 32.2822C77.6758 32.1143 77.7855 31.898 77.7855 31.6332C77.7855 31.3685 77.6338 31.149 77.3303 30.9746C77.0268 30.7938 76.6524 30.6389 76.2068 30.5097C75.7613 30.3742 75.319 30.2127 74.8799 30.0255C74.4473 29.8382 74.0793 29.5477 73.7758 29.1538C73.4724 28.7599 73.3206 28.2628 73.3206 27.6623C73.3206 26.881 73.6822 26.174 74.4054 25.5412C75.135 24.9084 76.0293 24.592 77.0882 24.592C77.7597 24.592 78.3763 24.718 78.9381 24.9698C79.5063 25.2216 79.9001 25.4669 80.1197 25.7059L80.4587 26.0836ZM89.4853 26.0836L88.1003 27.6623C88.0616 27.6106 87.997 27.5396 87.9066 27.4492C87.8227 27.3588 87.6419 27.2426 87.3643 27.1005C87.0866 26.952 86.8025 26.8778 86.512 26.8778C86.1439 26.8778 85.8534 26.9585 85.6403 27.1199C85.4272 27.2749 85.3207 27.4557 85.3207 27.6623C85.3207 27.9141 85.4724 28.1239 85.7759 28.2918C86.0794 28.4597 86.4474 28.6114 86.88 28.747C87.3191 28.8762 87.7614 29.0344 88.2069 29.2216C88.6524 29.4024 89.0269 29.6994 89.3304 30.1127C89.6338 30.5194 89.7856 31.0263 89.7856 31.6332C89.7856 32.5049 89.4401 33.2345 88.7493 33.8221C88.0648 34.4097 87.1221 34.7035 85.9212 34.7035C85.4046 34.7035 84.9139 34.6421 84.449 34.5195C83.9841 34.3968 83.6064 34.2483 83.3158 34.0739C83.0253 33.8996 82.7702 33.7285 82.5507 33.5606C82.3376 33.3863 82.1826 33.241 82.0858 33.1248L81.9502 32.9214L83.4417 31.4395C83.4934 31.517 83.5741 31.6171 83.6839 31.7398C83.8001 31.856 84.039 32.0174 84.4006 32.224C84.7622 32.4242 85.1367 32.5243 85.5241 32.5243C85.9502 32.5243 86.2698 32.4436 86.4829 32.2822C86.7024 32.1143 86.8122 31.898 86.8122 31.6332C86.8122 31.3685 86.6605 31.149 86.357 30.9746C86.0535 30.7938 85.679 30.6389 85.2335 30.5097C84.788 30.3742 84.3457 30.2127 83.9066 30.0255C83.474 29.8382 83.106 29.5477 82.8025 29.1538C82.499 28.7599 82.3473 28.2628 82.3473 27.6623C82.3473 26.881 82.7089 26.174 83.432 25.5412C84.1617 24.9084 85.0559 24.592 86.1149 24.592C86.7864 24.592 87.403 24.718 87.9648 24.9698C88.533 25.2216 88.9268 25.4669 89.1464 25.7059L89.4853 26.0836Z" fill="black"/>
</svg>
