<svg width="35" height="30" viewBox="0 0 35 30" fill="none" xmlns="http://www.w3.org/2000/svg">
<path fill-rule="evenodd" clip-rule="evenodd" d="M0 2.5C0 1.83696 0.263392 1.20107 0.732233 0.732234C1.20107 0.263393 1.83696 0 2.5 0H32.5C33.163 0 33.7989 0.263393 34.2678 0.732234C34.7366 1.20107 35 1.83696 35 2.5C35 3.16304 34.7366 3.79893 34.2678 4.26777C33.7989 4.73661 33.163 5 32.5 5H2.5C1.83696 5 1.20107 4.73661 0.732233 4.26777C0.263392 3.79893 0 3.16304 0 2.5ZM0 15C0 14.337 0.263392 13.7011 0.732233 13.2322C1.20107 12.7634 1.83696 12.5 2.5 12.5H32.5C33.163 12.5 33.7989 12.7634 34.2678 13.2322C34.7366 13.7011 35 14.337 35 15C35 15.663 34.7366 16.2989 34.2678 16.7678C33.7989 17.2366 33.163 17.5 32.5 17.5H2.5C1.83696 17.5 1.20107 17.2366 0.732233 16.7678C0.263392 16.2989 0 15.663 0 15ZM0 27.5C0 26.837 0.263392 26.2011 0.732233 25.7322C1.20107 25.2634 1.83696 25 2.5 25H32.5C33.163 25 33.7989 25.2634 34.2678 25.7322C34.7366 26.2011 35 26.837 35 27.5C35 28.163 34.7366 28.7989 34.2678 29.2678C33.7989 29.7366 33.163 30 32.5 30H2.5C1.83696 30 1.20107 29.7366 0.732233 29.2678C0.263392 28.7989 0 28.163 0 27.5Z" fill="white"/>
</svg>
