<svg width="42" height="42" viewBox="0 0 42 42" fill="none" xmlns="http://www.w3.org/2000/svg">
<path d="M21.0001 0.166992C9.54175 0.166992 0.166748 9.54199 0.166748 21.0003C0.166748 32.4587 9.54175 41.8337 21.0001 41.8337C32.4584 41.8337 41.8334 32.4587 41.8334 21.0003C41.8334 9.54199 32.4584 0.166992 21.0001 0.166992ZM31.2084 12.8753L27.6667 29.9587C27.4584 31.2087 26.6251 31.417 25.7917 30.792L20.3751 26.6253C19.1251 27.8753 17.8751 28.917 17.6667 29.3337C17.2501 29.542 17.0417 29.9587 16.6251 29.9587C16.0001 29.9587 16.0001 29.542 15.7917 29.1253L13.9167 22.8753L8.29175 21.0003C7.04175 20.5837 7.04175 19.7503 8.50008 19.1253L29.7501 11.0003C30.5834 10.792 31.6251 11.2087 31.2084 12.8753ZM26.2084 14.7503L14.3334 22.2503L16.2084 28.5003L16.6251 24.3337L26.8334 15.167C27.4584 14.542 27.0417 14.542 26.2084 14.7503Z" fill="white"/>
</svg>
