<svg width="42" height="42" viewBox="0 0 42 42" fill="none" xmlns="http://www.w3.org/2000/svg">
<path d="M27.402 0.166992H14.6199C2.94448 0.166992 0.166748 2.94472 0.166748 14.5984V27.3805C0.166748 39.0558 2.92287 41.8337 14.5981 41.8337H27.3803C39.0557 41.8337 41.8334 39.0775 41.8334 27.4022V14.6201C41.8334 2.94472 39.0773 0.166992 27.402 0.166992ZM33.8038 29.8978H30.7657C29.6156 29.8978 29.2683 28.9647 27.2067 26.9031C25.4054 25.167 24.6459 24.9499 24.1902 24.9499C23.5609 24.9499 23.3872 25.1235 23.3872 25.9916V28.726C23.3872 29.4639 23.1485 29.8978 21.2171 29.8978C19.3429 29.7719 17.5255 29.2026 15.9144 28.2367C14.3034 27.2708 12.9448 25.936 11.9506 24.3423C9.59041 21.4046 7.94822 17.9567 7.15464 14.2728C7.15464 13.8171 7.32821 13.4048 8.19631 13.4048H11.2345C12.0157 13.4048 12.2979 13.752 12.6016 14.555C14.0773 18.8952 16.5947 22.6713 17.6147 22.6713C18.0053 22.6713 18.1789 22.4977 18.1789 21.5212V17.0506C18.0486 15.0107 16.9636 14.8371 16.9636 14.0993C16.9779 13.9046 17.0675 13.7232 17.2134 13.5935C17.3592 13.4639 17.5499 13.3961 17.7449 13.4048H22.5192C23.1703 13.4048 23.3872 13.7303 23.3872 14.5115V20.5446C23.3872 21.1956 23.6693 21.4126 23.8647 21.4126C24.2553 21.4126 24.5591 21.1956 25.2752 20.4795C26.8141 18.6028 28.0716 16.512 29.0079 14.2728C29.1035 14.0034 29.2846 13.7727 29.5237 13.6159C29.7627 13.4592 30.0465 13.385 30.3317 13.4048H33.3699C34.2813 13.4048 34.4766 13.8605 34.2813 14.5115C33.1758 16.9872 31.8081 19.3372 30.2015 21.5212C29.876 22.0202 29.7458 22.2807 30.2015 22.8666C30.5053 23.3223 31.5687 24.2121 32.2848 25.0584C33.3265 26.0974 34.1914 27.2996 34.8455 28.6175C35.1059 29.4639 34.6719 29.8978 33.8038 29.8978Z" fill="white"/>
</svg>
